<?xml version="1.0" standalone="no"?>
<!DOCTYPE svg PUBLIC "-//W3C//DTD SVG 20010904//EN"
 "http://www.w3.org/TR/2001/REC-SVG-20010904/DTD/svg10.dtd">
<svg version="1.0" xmlns="http://www.w3.org/2000/svg"
 width="500.000000pt" height="500.000000pt" viewBox="0 0 500.000000 500.000000"
 preserveAspectRatio="xMidYMid meet">
<metadata>
Created by potrace 1.14, written by Peter Selinger 2001-2017
</metadata>
<g transform="translate(0.000000,500.000000) scale(0.100000,-0.100000)"
fill="#000000" stroke="none">
<path d="M2036 4493 c-1 -1 -24 -5 -51 -8 -42 -6 -125 -23 -185 -39 -44 -12
-145 -52 -148 -58 -2 -5 -9 -8 -15 -8 -25 0 -212 -109 -264 -154 -7 -6 -27
-22 -44 -36 -39 -30 -140 -122 -187 -170 -82 -85 -166 -224 -214 -355 -16 -44
-28 -80 -27 -80 0 0 -3 -18 -7 -40 -10 -51 -11 -55 -14 -57 -2 -3 -4 -17 -13
-93 -4 -27 -8 -59 -11 -70 -17 -87 -27 -369 -14 -419 4 -17 3 -35 -3 -42 -5
-7 -6 -14 -1 -16 5 -1 12 -32 16 -68 4 -36 10 -84 15 -107 5 -24 6 -43 3 -43
-2 0 0 -6 5 -12 10 -12 13 -28 14 -70 0 -10 4 -18 10 -18 5 0 9 -8 9 -17 0
-18 50 -165 88 -259 l21 -51 -50 -6 c-35 -4 -65 -17 -97 -40 -54 -39 -115
-114 -108 -133 3 -7 0 -14 -5 -16 -10 -3 -14 -85 -7 -120 6 -27 48 -66 78 -73
32 -7 103 19 140 51 14 13 34 31 45 41 32 28 85 105 85 122 0 9 15 -7 34 -34
111 -161 267 -209 320 -98 9 19 11 31 5 28 -6 -4 -5 1 2 13 10 17 10 23 0 36
-8 9 -9 16 -3 16 25 0 -30 101 -83 153 -32 31 -116 67 -157 67 -34 0 -38 3
-39 28 -4 79 2 159 15 203 16 52 62 144 83 167 7 7 13 18 13 24 0 6 2 9 5 7 2
-3 27 15 53 40 53 50 139 97 242 132 52 18 88 22 180 23 111 0 186 -6 197 -17
3 -3 -5 -16 -17 -29 -28 -30 -61 -83 -65 -106 -2 -9 -4 -17 -5 -17 -1 0 -3
-12 -4 -27 -6 -58 53 -84 118 -53 64 31 146 128 146 174 0 18 56 8 115 -20 11
-6 30 -11 43 -12 12 0 22 -6 22 -11 0 -5 3 -6 7 -3 3 4 12 2 20 -4 7 -6 13 -8
13 -5 0 4 8 3 18 -3 9 -5 35 -11 57 -15 22 -3 55 -10 74 -15 18 -6 36 -10 40
-9 3 0 8 -1 11 -2 25 -11 199 -15 265 -7 60 8 77 11 135 27 25 7 50 13 55 14
6 1 32 12 59 24 27 12 51 22 53 22 3 0 39 23 80 51 78 52 198 168 209 201 3
10 10 18 15 18 5 0 9 4 9 10 0 5 13 32 30 60 16 27 27 50 24 50 -2 0 2 12 9
28 47 91 62 284 33 417 -2 6 -9 30 -16 55 -8 25 -14 47 -15 50 -1 10 -59 125
-65 130 -3 3 -12 18 -20 34 -14 27 -134 155 -175 186 -60 45 -182 112 -230
125 -16 4 -34 10 -40 11 -45 15 -123 30 -137 28 -10 -1 -18 1 -18 5 0 11 -44
8 -52 -4 -5 -7 -8 -6 -8 0 0 10 -57 11 -147 1 l-42 -4 -17 46 c-10 26 -26 59
-35 73 -10 14 -16 28 -14 31 11 10 -78 88 -128 112 -60 30 -176 48 -272 44
-37 -2 -67 -4 -69 -5z"/>
<path d="M4325 4078 c-33 -19 -45 -41 -41 -73 7 -59 45 -91 96 -82 51 9 70 46
61 117 0 5 -11 18 -23 30 -24 22 -62 26 -93 8z"/>
<path d="M4022 3765 c-12 -25 -25 -44 -29 -43 -5 1 -25 -1 -46 -6 l-38 -7 35
-39 c32 -36 34 -41 25 -75 -6 -20 -8 -40 -5 -43 4 -3 26 4 49 15 38 18 45 19
62 6 54 -40 57 -39 53 16 -3 45 0 53 30 84 l34 35 -41 7 c-22 4 -43 6 -47 5
-3 0 -15 16 -26 37 -30 57 -32 57 -56 8z"/>
<path d="M3687 3409 c-10 -11 -22 -17 -27 -14 -15 9 -12 -11 4 -24 8 -7 12
-21 8 -33 -4 -19 -2 -20 22 -14 17 4 34 2 42 -5 12 -9 14 -6 14 20 0 17 5 31
10 31 6 0 10 7 10 16 0 8 -4 13 -9 10 -4 -3 -16 3 -26 14 -22 24 -25 24 -48
-1z"/>
<path d="M4155 3177 c-62 -20 -161 -111 -192 -174 -14 -30 -33 -44 -33 -25 0
20 -101 132 -119 132 -6 0 -11 4 -11 9 0 5 -23 18 -52 29 -57 21 -105 17 -135
-13 -21 -21 -24 -35 -26 -101 -2 -118 123 -244 242 -244 l38 0 2 -82 c1 -50
-5 -105 -14 -138 -9 -30 -16 -61 -17 -67 -1 -7 -5 -13 -9 -13 -4 0 -9 -10 -13
-22 -16 -66 -139 -179 -262 -241 -64 -32 -189 -66 -237 -63 -20 1 -37 -2 -37
-7 0 -4 -5 -5 -11 -1 -6 3 -34 7 -62 9 -29 1 -72 6 -96 10 -36 6 -42 10 -30
19 34 26 89 119 89 150 0 10 -24 13 -96 13 -100 0 -99 1 -141 -50 -7 -9 -15
-27 -19 -42 -4 -15 -13 -29 -20 -32 -7 -3 -55 9 -105 27 -51 17 -100 33 -108
35 -9 2 -31 8 -49 14 -18 5 -35 10 -37 10 -3 1 -6 1 -7 2 -2 0 -12 2 -23 4
-11 2 -36 6 -55 10 -72 15 -293 15 -355 1 -33 -8 -63 -12 -67 -10 -3 2 -9 0
-13 -6 -4 -6 -11 -8 -16 -5 -5 4 -9 1 -9 -4 0 -6 -9 -11 -20 -11 -27 0 -150
-61 -213 -106 -64 -46 -159 -142 -191 -192 -54 -87 -102 -188 -99 -212 1 -3
-3 -12 -7 -20 -31 -58 -30 -295 1 -377 6 -15 10 -29 10 -30 -2 -6 4 -24 17
-56 7 -16 12 -30 12 -32 0 -8 77 -134 100 -164 46 -60 132 -141 149 -141 5 0
11 -6 14 -12 6 -17 148 -92 212 -113 28 -9 57 -19 65 -22 20 -8 56 -13 107
-16 24 -1 43 -4 43 -7 0 -5 112 -4 185 1 35 3 59 -1 52 -8 -4 -3 -2 -12 4 -20
6 -7 9 -13 5 -13 -15 0 59 -126 95 -161 67 -65 137 -89 279 -94 86 -3 236 11
295 28 6 2 26 7 45 11 19 4 44 11 55 16 11 5 47 18 80 30 216 78 487 280 635
475 112 147 189 370 216 624 24 228 24 348 -1 561 -3 25 -17 92 -32 150 -23
91 -41 147 -107 327 -7 18 -15 36 -19 39 -16 16 -5 31 23 32 63 2 143 54 208
136 20 25 35 110 28 158 -11 75 -68 109 -141 85z"/>
<path d="M2581 2592 c-9 -17 -18 -21 -37 -16 -18 5 -25 3 -24 -7 4 -28 0 -37
-17 -34 -31 4 -35 -6 -12 -28 22 -20 22 -20 2 -37 -20 -16 -20 -16 9 -33 26
-15 28 -19 17 -33 -12 -15 -10 -16 19 -10 24 6 33 4 38 -8 3 -9 13 -16 21 -16
8 0 12 4 9 9 -8 12 20 22 39 15 8 -4 16 -1 16 5 1 6 2 17 3 24 1 6 11 12 24
11 26 -1 26 0 6 32 -16 23 -16 26 2 39 21 15 16 25 -15 28 -16 1 -19 6 -14 26
5 22 3 23 -18 18 -18 -5 -28 -1 -40 15 l-17 21 -11 -21z"/>
<path d="M1295 1713 c-5 -16 -15 -23 -33 -23 -24 0 -24 -1 -9 -18 9 -10 15
-28 12 -40 -3 -18 -1 -20 20 -12 15 6 27 6 30 0 11 -18 25 -10 21 12 -1 13 4
28 13 35 14 10 12 13 -11 24 -15 6 -29 19 -31 28 -4 12 -7 11 -12 -6z"/>
<path d="M974 1438 c-21 -42 -17 -39 -56 -45 -18 -3 -34 -6 -36 -8 -2 -1 9
-16 23 -33 22 -26 25 -37 19 -67 -7 -40 6 -46 44 -19 21 14 25 14 57 -5 37
-22 38 -21 35 37 -1 25 5 38 25 54 30 23 23 38 -20 41 -20 2 -33 11 -46 36
-25 46 -26 47 -45 9z"/>
<path d="M580 942 c-31 -25 -32 -57 -4 -87 23 -25 25 -25 54 -10 36 19 50 43
40 71 -15 39 -59 52 -90 26z"/>
</g>
</svg>
